<?xml version="1.0" encoding="UTF-8"?>
<svg width="40px" height="41px" viewBox="0 0 40 41" version="1.1" xmlns="http://www.w3.org/2000/svg" xmlns:xlink="http://www.w3.org/1999/xlink">
    <!-- Generator: Sketch 55.2 (78181) - https://sketchapp.com -->
    <title>logo</title>
    <desc>Created with Sketch.</desc>
    <g id="Page-1" stroke="none" stroke-width="1" fill="none" fill-rule="evenodd">
        <g id="Desktop" transform="translate(-497.000000, -3700.000000)" fill="#FFFFFF" fill-rule="nonzero">
            <g id="design" transform="translate(-19.000000, -181.000000)">
                <g id="footer" transform="translate(19.000000, 3873.000000)">
                    <g id="logo" transform="translate(497.000000, 8.000000)">
                        <path d="M15.9603643,0.403203439 C8.19455418,1.95674374 1.93659247,8.35508755 0.40530596,16.2909558 C-2.48538796,31.265803 10.6946138,42.4288709 20.624538,40.8513068 C23.8433648,40.3387987 25.4215274,36.4789717 23.9449297,33.5080261 C22.1401992,29.8724215 24.7183856,25.6282135 28.7028556,25.6282135 L34.9295666,25.6282135 C37.7265083,25.6282135 39.9921873,23.2578633 40,20.3990288 C39.9609366,7.77851589 28.7575445,-2.15132932 15.9603643,0.403203439 Z M7.4992251,25.6282135 C6.11637963,25.6282135 4.99916549,24.4830781 4.99916549,23.0656728 C4.99916549,21.6482674 6.11637963,20.5031321 7.4992251,20.5031321 C8.88207057,20.5031321 9.99928471,21.6482674 9.99928471,23.0656728 C9.99928471,24.4830781 8.88207057,25.6282135 7.4992251,25.6282135 Z M9.99928471,15.3780507 C8.61643923,15.3780507 7.4992251,14.2329153 7.4992251,12.81551 C7.4992251,11.3981046 8.61643923,10.2529693 9.99928471,10.2529693 C11.3821302,10.2529693 12.4993443,11.3981046 12.4993443,12.81551 C12.4993443,14.2329153 11.3821302,15.3780507 9.99928471,15.3780507 Z M19.9995231,10.2529693 C18.6166777,10.2529693 17.4994635,9.10783388 17.4994635,7.69042856 C17.4994635,6.27302323 18.6166777,5.12788786 19.9995231,5.12788786 C21.3823686,5.12788786 22.4995827,6.27302323 22.4995827,7.69042856 C22.4995827,9.10783388 21.3823686,10.2529693 19.9995231,10.2529693 Z M29.9997616,15.3780507 C28.6169161,15.3780507 27.499702,14.2329153 27.499702,12.81551 C27.499702,11.3981046 28.6169161,10.2529693 29.9997616,10.2529693 C31.382607,10.2529693 32.4998212,11.3981046 32.4998212,12.81551 C32.4998212,14.2329153 31.382607,15.3780507 29.9997616,15.3780507 Z" id="Shape"></path>
                    </g>
                </g>
            </g>
        </g>
    </g>
</svg>